<svg width="34" height="34" viewBox="0 0 34 34" fill="none" xmlns="http://www.w3.org/2000/svg">
<path d="M3.42742 27.0416H6.85484V34L15.5965 27.0416H23.9919C25.8822 27.0416 27.4194 25.5121 27.4194 23.6314V9.99078C27.4194 8.11008 25.8822 6.58063 23.9919 6.58063H3.42742C1.5372 6.58063 0 8.11008 0 9.99078V23.6314C0 25.5121 1.5372 27.0416 3.42742 27.0416Z" fill="#787878"/>
<path d="M30.5727 0H10.0082C8.11801 0 6.58081 1.55769 6.58081 3.47312H27.1453C29.0355 3.47312 30.5727 5.03081 30.5727 6.94624V20.8387C32.463 20.8387 34.0002 19.281 34.0002 17.3656V3.47312C34.0002 1.55769 32.463 0 30.5727 0Z" fill="#787878"/>
</svg>
