<svg width="34" height="35" viewBox="0 0 34 35" fill="none" xmlns="http://www.w3.org/2000/svg">
<path id="Vector" d="M3.39849 15.3017C3.83184 15.3022 4.24864 15.4681 4.56375 15.7656C4.87886 16.0631 5.06848 16.4696 5.09387 16.9022C5.11927 17.3348 4.97852 17.7608 4.70039 18.0931C4.42225 18.4254 4.02773 18.639 3.59742 18.6902L3.39849 18.7021H1.6983C1.26496 18.7016 0.848156 18.5357 0.53305 18.2382C0.217943 17.9407 0.0283203 17.5341 0.00292438 17.1015C-0.0224715 16.6689 0.118277 16.243 0.396411 15.9107C0.674545 15.5783 1.06907 15.3648 1.49938 15.3136L1.6983 15.3017H3.39849ZM17 0C17.4164 5.4934e-05 17.8184 0.152942 18.1296 0.429664C18.4408 0.706385 18.6396 1.08769 18.6883 1.50127L18.7002 1.70019V3.40038C18.6997 3.83372 18.5338 4.25053 18.2363 4.56563C17.9388 4.88074 17.5322 5.07036 17.0996 5.09576C16.667 5.12115 16.2411 4.98041 15.9088 4.70227C15.5765 4.42414 15.3629 4.02961 15.3117 3.5993L15.2998 3.40038V1.70019C15.2998 1.24927 15.4789 0.816821 15.7978 0.497974C16.1166 0.179126 16.5491 0 17 0ZM32.3017 15.3017C32.735 15.3022 33.1518 15.4681 33.4669 15.7656C33.7821 16.0631 33.9717 16.4696 33.9971 16.9022C34.0225 17.3348 33.8817 17.7608 33.6036 18.0931C33.3255 18.4254 32.9309 18.639 32.5006 18.6902L32.3017 18.7021H30.6015C30.1682 18.7016 29.7514 18.5357 29.4363 18.2382C29.1211 17.9407 28.9315 17.5341 28.9061 17.1015C28.8807 16.6689 29.0215 16.243 29.2996 15.9107C29.5777 15.5783 29.9723 15.3648 30.4026 15.3136L30.6015 15.3017H32.3017ZM4.91676 4.91865C5.20952 4.62591 5.59903 4.45006 6.01222 4.42408C6.42541 4.3981 6.83389 4.52377 7.16101 4.77753L7.32083 4.91865L8.51096 6.10878C8.81589 6.41474 8.99292 6.8253 9.0061 7.25706C9.01929 7.68882 8.86763 8.10941 8.58195 8.43341C8.29626 8.75741 7.89795 8.96051 7.46794 9.00148C7.03792 9.04244 6.60843 8.91819 6.26671 8.65396L6.10689 8.51284L4.91676 7.32271C4.59803 7.00388 4.41897 6.57151 4.41897 6.12068C4.41897 5.66985 4.59803 5.23748 4.91676 4.91865ZM26.6792 4.91865C26.9851 4.61372 27.3957 4.43669 27.8275 4.4235C28.2592 4.41032 28.6798 4.56197 29.0038 4.84766C29.3278 5.13335 29.5309 5.53165 29.5719 5.96167C29.6128 6.39168 29.4886 6.82117 29.2244 7.16289L29.0832 7.32271L27.8931 8.51284C27.5871 8.81777 27.1766 8.9948 26.7448 9.00799C26.3131 9.02117 25.8925 8.86952 25.5685 8.58383C25.2445 8.29814 25.0414 7.89984 25.0004 7.46982C24.9594 7.03981 25.0837 6.61032 25.3479 6.2686L25.489 6.10878L26.6792 4.91865ZM20.4004 27.203C20.8513 27.203 21.2837 27.3821 21.6026 27.701C21.9214 28.0198 22.1006 28.4523 22.1006 28.9032C22.1006 30.256 21.5632 31.5533 20.6066 32.5099C19.6501 33.4664 18.3528 34.0038 17 34.0038C15.6472 34.0038 14.3499 33.4664 13.3934 32.5099C12.4368 31.5533 11.8994 30.256 11.8994 28.9032C11.8995 28.4868 12.0524 28.0848 12.3291 27.7736C12.6058 27.4625 12.9871 27.2636 13.4007 27.2149L13.5996 27.203H20.4004ZM17 6.80075C19.141 6.80075 21.2278 7.47441 22.9647 8.7263C24.7016 9.97819 26.0006 11.7448 26.6776 13.776C27.3547 15.8072 27.3755 17.9999 26.7371 20.0435C26.0987 22.0872 24.8335 23.8782 23.1207 25.1628C22.8863 25.3388 22.6105 25.4513 22.3199 25.4892L22.1006 25.5028H11.8994C11.5316 25.5028 11.1736 25.3835 10.8793 25.1628C9.16649 23.8782 7.90127 22.0872 7.26288 20.0435C6.6245 17.9999 6.6453 15.8072 7.32236 13.776C7.99941 11.7448 9.29839 9.97819 11.0353 8.7263C12.7722 7.47441 14.859 6.80075 17 6.80075Z" fill="#787878"/>
</svg>
