<svg width="150" height="155" viewBox="0 0 150 155" fill="none" xmlns="http://www.w3.org/2000/svg">
<circle cx="75" cy="65" r="65" fill="#333333"/>
<path d="M107.943 70.7699C108.871 70.2425 109.643 69.4771 110.18 68.5518C110.717 67.6265 111 66.5745 111 65.5033C111 64.4321 110.717 63.3801 110.18 62.4548C109.643 61.5295 108.871 60.7641 107.943 60.2367L60.1472 32.8184C56.0803 30.4867 51 33.4148 51 38.0984V92.9082C51 97.5851 56.0803 100.513 60.1472 98.1815L107.95 70.7632L107.943 70.7699Z" fill="white"/>
<g filter="url(#filter0_d_324_3466)">
<path d="M26.2969 151.156C24.6094 151.156 23.3099 150.646 22.3984 149.625C21.487 148.604 21.0312 147.154 21.0312 145.273C21.0312 145.247 21.0312 145.221 21.0312 145.195C21.0312 144.06 21.25 143.052 21.6875 142.172C22.1302 141.292 22.7656 140.612 23.5938 140.133C24.4271 139.654 25.3828 139.414 26.4609 139.414C26.487 139.414 26.5104 139.414 26.5312 139.414C27.724 139.414 28.7708 139.633 29.6719 140.07L29.1094 141.211C28.2396 140.805 27.375 140.602 26.5156 140.602C25.2604 140.602 24.2682 141.021 23.5391 141.859C22.8151 142.693 22.4531 143.846 22.4531 145.32C22.4531 146.789 22.8021 147.935 23.5 148.758C24.2031 149.57 25.2031 149.977 26.5 149.977C27.3021 149.977 28.2109 149.833 29.2266 149.547V150.711C28.4141 151.008 27.4375 151.156 26.2969 151.156ZM35.4375 142.281C35.8125 142.281 36.1536 142.312 36.4609 142.375L36.2812 143.578C35.9271 143.5 35.6146 143.461 35.3438 143.461C34.6458 143.461 34.0521 143.742 33.5625 144.305C33.0729 144.862 32.8281 145.562 32.8281 146.406V151H31.5312V142.438H32.6016L32.75 144.023H32.8125C33.1302 143.461 33.513 143.031 33.9609 142.734C34.4141 142.432 34.9062 142.281 35.4375 142.281ZM41.6797 151.156C40.4141 151.156 39.4141 150.771 38.6797 150C37.9505 149.224 37.5859 148.148 37.5859 146.773C37.5859 145.398 37.9245 144.307 38.6016 143.5C39.2839 142.688 40.1797 142.281 41.2891 142.281C42.4036 142.281 43.2708 142.638 43.8906 143.352C44.5156 144.044 44.8281 144.971 44.8281 146.133V146.953H38.9297C38.9557 147.953 39.2083 148.716 39.6875 149.242C40.1667 149.763 40.8568 150.023 41.7578 150.023C42.6589 150.023 43.5573 149.831 44.4531 149.445V150.602C44 150.799 43.5651 150.94 43.1484 151.023C42.737 151.112 42.2474 151.156 41.6797 151.156ZM43.4375 145.898C43.4375 145.086 43.2552 144.464 42.8906 144.031C42.526 143.594 42.0026 143.375 41.3203 143.375C40.6432 143.375 40.099 143.596 39.6875 144.039C39.276 144.482 39.0339 145.102 38.9609 145.898H43.4375ZM47.3672 143.031C48.263 142.542 49.2266 142.297 50.2578 142.297C51.2891 142.297 52.0469 142.526 52.5312 142.984C53.0208 143.438 53.2656 144.161 53.2656 145.156V151H52.3125L52.0547 149.781H51.9922C51.5651 150.318 51.138 150.682 50.7109 150.875C50.2891 151.062 49.7604 151.156 49.125 151.156C48.276 151.156 47.6094 150.938 47.125 150.5C46.6406 150.057 46.3984 149.435 46.3984 148.633C46.3984 146.909 47.7839 146.003 50.5547 145.914L52.0078 145.867V145.336C52.0078 144.659 51.862 144.164 51.5703 143.852C51.2839 143.534 50.7995 143.375 50.1172 143.375C49.4349 143.375 48.651 143.591 47.7656 144.023L47.3672 143.031ZM47.7656 148.648C47.7656 149.112 47.9062 149.469 48.1875 149.719C48.4688 149.964 48.8672 150.086 49.3828 150.086C50.1901 150.086 50.8229 149.865 51.2812 149.422C51.7448 148.974 51.9766 148.354 51.9766 147.562V146.789L50.6797 146.844C49.6484 146.88 48.9036 147.042 48.4453 147.328C47.9922 147.609 47.7656 148.049 47.7656 148.648ZM57.3438 142.438H59.8281V143.445H57.3438V148.484C57.3438 148.995 57.4635 149.391 57.7031 149.672C57.9479 149.948 58.2812 150.086 58.7031 150.086C59.125 150.086 59.5208 150.034 59.8906 149.93V150.93C59.7656 150.992 59.5625 151.044 59.2812 151.086C59 151.133 58.75 151.156 58.5312 151.156C56.875 151.156 56.0469 150.284 56.0469 148.539V143.445H54.8203V142.82L56.0469 142.281L56.5938 140.453H57.3438V142.438ZM65.2266 151.156C63.9609 151.156 62.9609 150.771 62.2266 150C61.4974 149.224 61.1328 148.148 61.1328 146.773C61.1328 145.398 61.4714 144.307 62.1484 143.5C62.8307 142.688 63.7266 142.281 64.8359 142.281C65.9505 142.281 66.8177 142.638 67.4375 143.352C68.0625 144.044 68.375 144.971 68.375 146.133V146.953H62.4766C62.5026 147.953 62.7552 148.716 63.2344 149.242C63.7135 149.763 64.4036 150.023 65.3047 150.023C66.2057 150.023 67.1042 149.831 68 149.445V150.602C67.5469 150.799 67.112 150.94 66.6953 151.023C66.2839 151.112 65.7943 151.156 65.2266 151.156ZM66.9844 145.898C66.9844 145.086 66.8021 144.464 66.4375 144.031C66.0729 143.594 65.5495 143.375 64.8672 143.375C64.1901 143.375 63.6458 143.596 63.2344 144.039C62.8229 144.482 62.5807 145.102 62.5078 145.898H66.9844ZM77.375 149.992C78.25 149.992 78.9141 149.826 79.3672 149.492C79.8203 149.159 80.0469 148.69 80.0469 148.086C80.0469 147.695 79.9661 147.372 79.8047 147.117C79.6484 146.862 79.3854 146.63 79.0156 146.422C78.651 146.208 78.0833 145.964 77.3125 145.688C76.2448 145.302 75.4844 144.849 75.0312 144.328C74.5781 143.807 74.3516 143.12 74.3516 142.266C74.3516 141.406 74.6823 140.716 75.3438 140.195C76.0052 139.674 76.8906 139.414 78 139.414C79.1094 139.414 80.1406 139.622 81.0938 140.039L80.6875 141.195C79.75 140.799 78.8333 140.602 77.9375 140.602C77.2344 140.602 76.6849 140.753 76.2891 141.055C75.8932 141.357 75.6953 141.776 75.6953 142.312C75.6953 142.703 75.7682 143.026 75.9141 143.281C76.0599 143.536 76.2995 143.768 76.6328 143.977C76.9714 144.18 77.5078 144.414 78.2422 144.68C79.4505 145.117 80.276 145.581 80.7188 146.07C81.1667 146.56 81.3906 147.19 81.3906 147.961C81.3906 148.956 81.026 149.74 80.2969 150.312C79.5677 150.875 78.5495 151.156 77.2422 151.156C75.9349 151.156 74.9219 150.982 74.2031 150.633V149.352C75.2083 149.779 76.2656 149.992 77.375 149.992ZM87.1484 151.156C85.8828 151.156 84.8828 150.771 84.1484 150C83.4193 149.224 83.0547 148.148 83.0547 146.773C83.0547 145.398 83.3932 144.307 84.0703 143.5C84.7526 142.688 85.6484 142.281 86.7578 142.281C87.8724 142.281 88.7396 142.638 89.3594 143.352C89.9844 144.044 90.2969 144.971 90.2969 146.133V146.953H84.3984C84.4245 147.953 84.6771 148.716 85.1562 149.242C85.6354 149.763 86.3255 150.023 87.2266 150.023C88.1276 150.023 89.026 149.831 89.9219 149.445V150.602C89.4688 150.799 89.0339 150.94 88.6172 151.023C88.2057 151.112 87.7161 151.156 87.1484 151.156ZM88.9062 145.898C88.9062 145.086 88.724 144.464 88.3594 144.031C87.9948 143.594 87.4714 143.375 86.7891 143.375C86.112 143.375 85.5677 143.596 85.1562 144.039C84.7448 144.482 84.5026 145.102 84.4297 145.898H88.9062ZM94.6797 150.086C96.0859 150.086 96.7891 149.648 96.7891 148.773C96.7891 148.44 96.6432 148.156 96.3516 147.922C96.0651 147.682 95.5026 147.401 94.6641 147.078C93.862 146.781 93.2917 146.521 92.9531 146.297C92.6198 146.073 92.3724 145.823 92.2109 145.547C92.0495 145.271 91.9688 144.935 91.9688 144.539C91.9688 143.846 92.2526 143.297 92.8203 142.891C93.388 142.484 94.1484 142.281 95.1016 142.281C96.0547 142.281 96.974 142.469 97.8594 142.844L97.3984 143.898C96.5443 143.549 95.7891 143.375 95.1328 143.375C94.4818 143.375 93.9974 143.469 93.6797 143.656C93.362 143.844 93.2031 144.109 93.2031 144.453C93.2031 144.682 93.2604 144.878 93.375 145.039C93.4896 145.201 93.6771 145.354 93.9375 145.5C94.1979 145.646 94.7005 145.857 95.4453 146.133C96.4609 146.503 97.1458 146.875 97.5 147.25C97.8594 147.625 98.0391 148.096 98.0391 148.664C98.0391 149.461 97.7396 150.076 97.1406 150.508C96.5469 150.94 95.6979 151.156 94.5938 151.156C93.4948 151.156 92.6276 150.977 91.9922 150.617V149.414C92.8776 149.862 93.7734 150.086 94.6797 150.086ZM102.305 150.086C103.711 150.086 104.414 149.648 104.414 148.773C104.414 148.44 104.268 148.156 103.977 147.922C103.69 147.682 103.128 147.401 102.289 147.078C101.487 146.781 100.917 146.521 100.578 146.297C100.245 146.073 99.9974 145.823 99.8359 145.547C99.6745 145.271 99.5938 144.935 99.5938 144.539C99.5938 143.846 99.8776 143.297 100.445 142.891C101.013 142.484 101.773 142.281 102.727 142.281C103.68 142.281 104.599 142.469 105.484 142.844L105.023 143.898C104.169 143.549 103.414 143.375 102.758 143.375C102.107 143.375 101.622 143.469 101.305 143.656C100.987 143.844 100.828 144.109 100.828 144.453C100.828 144.682 100.885 144.878 101 145.039C101.115 145.201 101.302 145.354 101.562 145.5C101.823 145.646 102.326 145.857 103.07 146.133C104.086 146.503 104.771 146.875 105.125 147.25C105.484 147.625 105.664 148.096 105.664 148.664C105.664 149.461 105.365 150.076 104.766 150.508C104.172 150.94 103.323 151.156 102.219 151.156C101.12 151.156 100.253 150.977 99.6172 150.617V149.414C100.503 149.862 101.398 150.086 102.305 150.086ZM107.656 140.117C107.656 139.831 107.727 139.617 107.867 139.477C108.008 139.331 108.19 139.258 108.414 139.258C108.638 139.258 108.823 139.331 108.969 139.477C109.115 139.622 109.188 139.836 109.188 140.117C109.188 140.398 109.115 140.615 108.969 140.766C108.823 140.911 108.638 140.984 108.414 140.984C108.19 140.984 108.008 140.911 107.867 140.766C107.727 140.615 107.656 140.398 107.656 140.117ZM109.062 151H107.766V142.438H109.062V151ZM111.328 146.711C111.328 145.315 111.674 144.229 112.367 143.453C113.065 142.672 114.023 142.281 115.242 142.281C116.466 142.281 117.427 142.68 118.125 143.477C118.839 144.268 119.195 145.354 119.195 146.734C119.195 148.115 118.844 149.198 118.141 149.984C117.438 150.766 116.466 151.156 115.227 151.156C115.206 151.156 115.185 151.156 115.164 151.156C114.034 151.156 113.112 150.755 112.398 149.953C111.685 149.151 111.328 148.107 111.328 146.82C111.328 146.784 111.328 146.747 111.328 146.711ZM115.242 143.391C113.529 143.391 112.672 144.497 112.672 146.711C112.672 147.805 112.891 148.638 113.328 149.211C113.771 149.784 114.414 150.07 115.258 150.07C116.107 150.07 116.75 149.786 117.188 149.219C117.63 148.646 117.852 147.812 117.852 146.719C117.852 145.625 117.63 144.797 117.188 144.234C116.75 143.672 116.102 143.391 115.242 143.391ZM125.531 142.281C126.573 142.281 127.352 142.534 127.867 143.039C128.383 143.544 128.641 144.336 128.641 145.414V151H127.344V145.461C127.344 144.758 127.182 144.237 126.859 143.898C126.542 143.56 126.047 143.391 125.375 143.391C124.474 143.391 123.815 143.633 123.398 144.117C122.987 144.602 122.781 145.398 122.781 146.508V151H121.484V142.438H122.539L122.75 143.609H122.812C123.078 143.188 123.448 142.862 123.922 142.633C124.401 142.398 124.938 142.281 125.531 142.281Z" fill="#333333"/>
</g>
<defs>
<filter id="filter0_d_324_3466" x="19.0312" y="138.258" width="111.609" height="15.8984" filterUnits="userSpaceOnUse" color-interpolation-filters="sRGB">
<feFlood flood-opacity="0" result="BackgroundImageFix"/>
<feColorMatrix in="SourceAlpha" type="matrix" values="0 0 0 0 0 0 0 0 0 0 0 0 0 0 0 0 0 0 127 0" result="hardAlpha"/>
<feOffset dy="1"/>
<feGaussianBlur stdDeviation="1"/>
<feComposite in2="hardAlpha" operator="out"/>
<feColorMatrix type="matrix" values="0 0 0 0 1 0 0 0 0 1 0 0 0 0 1 0 0 0 0.8 0"/>
<feBlend mode="normal" in2="BackgroundImageFix" result="effect1_dropShadow_324_3466"/>
<feBlend mode="normal" in="SourceGraphic" in2="effect1_dropShadow_324_3466" result="shape"/>
</filter>
</defs>
</svg>
