<svg width="150" height="158" viewBox="0 0 150 158" fill="none" xmlns="http://www.w3.org/2000/svg">
<circle cx="75" cy="65" r="65" fill="#333333"/>
<path d="M105 39.2057V88.7943C104.998 90.1744 104.449 91.4974 103.473 92.4733C102.497 93.4492 101.174 93.9982 99.7943 94H50.2057C48.8256 93.9982 47.5026 93.4492 46.5267 92.4733C45.5508 91.4974 45.0018 90.1744 45 88.7943V39.2057C45.0018 37.8256 45.5508 36.5026 46.5267 35.5267C47.5026 34.5508 48.8256 34.0018 50.2057 34H99.7943C101.174 34.0018 102.497 34.5508 103.473 35.5267C104.449 36.5026 104.998 37.8256 105 39.2057Z" fill="white"/>
<g filter="url(#filter0_d_324_3465)">
<path d="M32.1797 149.992C33.0547 149.992 33.7188 149.826 34.1719 149.492C34.625 149.159 34.8516 148.69 34.8516 148.086C34.8516 147.695 34.7708 147.372 34.6094 147.117C34.4531 146.862 34.1901 146.63 33.8203 146.422C33.4557 146.208 32.888 145.964 32.1172 145.688C31.0495 145.302 30.2891 144.849 29.8359 144.328C29.3828 143.807 29.1562 143.12 29.1562 142.266C29.1562 141.406 29.487 140.716 30.1484 140.195C30.8099 139.674 31.6953 139.414 32.8047 139.414C33.9141 139.414 34.9453 139.622 35.8984 140.039L35.4922 141.195C34.5547 140.799 33.638 140.602 32.7422 140.602C32.0391 140.602 31.4896 140.753 31.0938 141.055C30.6979 141.357 30.5 141.776 30.5 142.312C30.5 142.703 30.5729 143.026 30.7188 143.281C30.8646 143.536 31.1042 143.768 31.4375 143.977C31.776 144.18 32.3125 144.414 33.0469 144.68C34.2552 145.117 35.0807 145.581 35.5234 146.07C35.9714 146.56 36.1953 147.19 36.1953 147.961C36.1953 148.956 35.8307 149.74 35.1016 150.312C34.3724 150.875 33.3542 151.156 32.0469 151.156C30.7396 151.156 29.7266 150.982 29.0078 150.633V149.352C30.013 149.779 31.0703 149.992 32.1797 149.992ZM39.7266 142.438H42.2109V143.445H39.7266V148.484C39.7266 148.995 39.8464 149.391 40.0859 149.672C40.3307 149.948 40.6641 150.086 41.0859 150.086C41.5078 150.086 41.9036 150.034 42.2734 149.93V150.93C42.1484 150.992 41.9453 151.044 41.6641 151.086C41.3828 151.133 41.1328 151.156 40.9141 151.156C39.2578 151.156 38.4297 150.284 38.4297 148.539V143.445H37.2031V142.82L38.4297 142.281L38.9766 140.453H39.7266V142.438ZM43.5078 146.711C43.5078 145.315 43.8542 144.229 44.5469 143.453C45.2448 142.672 46.2031 142.281 47.4219 142.281C48.6458 142.281 49.6068 142.68 50.3047 143.477C51.0182 144.268 51.375 145.354 51.375 146.734C51.375 148.115 51.0234 149.198 50.3203 149.984C49.6172 150.766 48.6458 151.156 47.4062 151.156C47.3854 151.156 47.3646 151.156 47.3438 151.156C46.2135 151.156 45.2917 150.755 44.5781 149.953C43.8646 149.151 43.5078 148.107 43.5078 146.82C43.5078 146.784 43.5078 146.747 43.5078 146.711ZM47.4219 143.391C45.7083 143.391 44.8516 144.497 44.8516 146.711C44.8516 147.805 45.0703 148.638 45.5078 149.211C45.9505 149.784 46.5938 150.07 47.4375 150.07C48.2865 150.07 48.9297 149.786 49.3672 149.219C49.8099 148.646 50.0312 147.812 50.0312 146.719C50.0312 145.625 49.8099 144.797 49.3672 144.234C48.9297 143.672 48.2812 143.391 47.4219 143.391ZM54.9609 143.609C55.5859 142.724 56.4714 142.281 57.6172 142.281C58.7682 142.281 59.6536 142.669 60.2734 143.445C60.8932 144.221 61.2031 145.312 61.2031 146.719C61.2031 148.125 60.888 149.216 60.2578 149.992C59.6328 150.768 58.7474 151.156 57.6016 151.156C56.4557 151.156 55.5755 150.737 54.9609 149.898H54.8672C54.9297 150.398 54.9609 150.872 54.9609 151.32V154.844H53.6641V142.438H54.7188L54.8984 143.609H54.9609ZM54.9609 146.711C54.9609 147.909 55.1615 148.771 55.5625 149.297C55.9635 149.812 56.6068 150.07 57.4922 150.07C58.237 150.07 58.8151 149.773 59.2266 149.18C59.6432 148.581 59.8516 147.753 59.8516 146.695C59.8516 145.633 59.6432 144.818 59.2266 144.25C58.8151 143.677 58.2266 143.391 57.4609 143.391C56.5807 143.391 55.9453 143.633 55.5547 144.117C55.1641 144.602 54.9661 145.37 54.9609 146.422V146.711ZM70.2578 149.992C71.1328 149.992 71.7969 149.826 72.25 149.492C72.7031 149.159 72.9297 148.69 72.9297 148.086C72.9297 147.695 72.849 147.372 72.6875 147.117C72.5312 146.862 72.2682 146.63 71.8984 146.422C71.5339 146.208 70.9661 145.964 70.1953 145.688C69.1276 145.302 68.3672 144.849 67.9141 144.328C67.4609 143.807 67.2344 143.12 67.2344 142.266C67.2344 141.406 67.5651 140.716 68.2266 140.195C68.888 139.674 69.7734 139.414 70.8828 139.414C71.9922 139.414 73.0234 139.622 73.9766 140.039L73.5703 141.195C72.6328 140.799 71.7161 140.602 70.8203 140.602C70.1172 140.602 69.5677 140.753 69.1719 141.055C68.776 141.357 68.5781 141.776 68.5781 142.312C68.5781 142.703 68.651 143.026 68.7969 143.281C68.9427 143.536 69.1823 143.768 69.5156 143.977C69.8542 144.18 70.3906 144.414 71.125 144.68C72.3333 145.117 73.1589 145.581 73.6016 146.07C74.0495 146.56 74.2734 147.19 74.2734 147.961C74.2734 148.956 73.9089 149.74 73.1797 150.312C72.4505 150.875 71.4323 151.156 70.125 151.156C68.8177 151.156 67.8047 150.982 67.0859 150.633V149.352C68.0911 149.779 69.1484 149.992 70.2578 149.992ZM80.0312 151.156C78.7656 151.156 77.7656 150.771 77.0312 150C76.3021 149.224 75.9375 148.148 75.9375 146.773C75.9375 145.398 76.276 144.307 76.9531 143.5C77.6354 142.688 78.5312 142.281 79.6406 142.281C80.7552 142.281 81.6224 142.638 82.2422 143.352C82.8672 144.044 83.1797 144.971 83.1797 146.133V146.953H77.2812C77.3073 147.953 77.5599 148.716 78.0391 149.242C78.5182 149.763 79.2083 150.023 80.1094 150.023C81.0104 150.023 81.9089 149.831 82.8047 149.445V150.602C82.3516 150.799 81.9167 150.94 81.5 151.023C81.0885 151.112 80.599 151.156 80.0312 151.156ZM81.7891 145.898C81.7891 145.086 81.6068 144.464 81.2422 144.031C80.8776 143.594 80.3542 143.375 79.6719 143.375C78.9948 143.375 78.4505 143.596 78.0391 144.039C77.6276 144.482 77.3854 145.102 77.3125 145.898H81.7891ZM87.5625 150.086C88.9688 150.086 89.6719 149.648 89.6719 148.773C89.6719 148.44 89.526 148.156 89.2344 147.922C88.9479 147.682 88.3854 147.401 87.5469 147.078C86.7448 146.781 86.1745 146.521 85.8359 146.297C85.5026 146.073 85.2552 145.823 85.0938 145.547C84.9323 145.271 84.8516 144.935 84.8516 144.539C84.8516 143.846 85.1354 143.297 85.7031 142.891C86.2708 142.484 87.0312 142.281 87.9844 142.281C88.9375 142.281 89.8568 142.469 90.7422 142.844L90.2812 143.898C89.4271 143.549 88.6719 143.375 88.0156 143.375C87.3646 143.375 86.8802 143.469 86.5625 143.656C86.2448 143.844 86.0859 144.109 86.0859 144.453C86.0859 144.682 86.1432 144.878 86.2578 145.039C86.3724 145.201 86.5599 145.354 86.8203 145.5C87.0807 145.646 87.5833 145.857 88.3281 146.133C89.3438 146.503 90.0286 146.875 90.3828 147.25C90.7422 147.625 90.9219 148.096 90.9219 148.664C90.9219 149.461 90.6224 150.076 90.0234 150.508C89.4297 150.94 88.5807 151.156 87.4766 151.156C86.3776 151.156 85.5104 150.977 84.875 150.617V149.414C85.7604 149.862 86.6562 150.086 87.5625 150.086ZM95.1875 150.086C96.5938 150.086 97.2969 149.648 97.2969 148.773C97.2969 148.44 97.151 148.156 96.8594 147.922C96.5729 147.682 96.0104 147.401 95.1719 147.078C94.3698 146.781 93.7995 146.521 93.4609 146.297C93.1276 146.073 92.8802 145.823 92.7188 145.547C92.5573 145.271 92.4766 144.935 92.4766 144.539C92.4766 143.846 92.7604 143.297 93.3281 142.891C93.8958 142.484 94.6562 142.281 95.6094 142.281C96.5625 142.281 97.4818 142.469 98.3672 142.844L97.9062 143.898C97.0521 143.549 96.2969 143.375 95.6406 143.375C94.9896 143.375 94.5052 143.469 94.1875 143.656C93.8698 143.844 93.7109 144.109 93.7109 144.453C93.7109 144.682 93.7682 144.878 93.8828 145.039C93.9974 145.201 94.1849 145.354 94.4453 145.5C94.7057 145.646 95.2083 145.857 95.9531 146.133C96.9688 146.503 97.6536 146.875 98.0078 147.25C98.3672 147.625 98.5469 148.096 98.5469 148.664C98.5469 149.461 98.2474 150.076 97.6484 150.508C97.0547 150.94 96.2057 151.156 95.1016 151.156C94.0026 151.156 93.1354 150.977 92.5 150.617V149.414C93.3854 149.862 94.2812 150.086 95.1875 150.086ZM100.539 140.117C100.539 139.831 100.609 139.617 100.75 139.477C100.891 139.331 101.073 139.258 101.297 139.258C101.521 139.258 101.706 139.331 101.852 139.477C101.997 139.622 102.07 139.836 102.07 140.117C102.07 140.398 101.997 140.615 101.852 140.766C101.706 140.911 101.521 140.984 101.297 140.984C101.073 140.984 100.891 140.911 100.75 140.766C100.609 140.615 100.539 140.398 100.539 140.117ZM101.945 151H100.648V142.438H101.945V151ZM104.211 146.711C104.211 145.315 104.557 144.229 105.25 143.453C105.948 142.672 106.906 142.281 108.125 142.281C109.349 142.281 110.31 142.68 111.008 143.477C111.721 144.268 112.078 145.354 112.078 146.734C112.078 148.115 111.727 149.198 111.023 149.984C110.32 150.766 109.349 151.156 108.109 151.156C108.089 151.156 108.068 151.156 108.047 151.156C106.917 151.156 105.995 150.755 105.281 149.953C104.568 149.151 104.211 148.107 104.211 146.82C104.211 146.784 104.211 146.747 104.211 146.711ZM108.125 143.391C106.411 143.391 105.555 144.497 105.555 146.711C105.555 147.805 105.773 148.638 106.211 149.211C106.654 149.784 107.297 150.07 108.141 150.07C108.99 150.07 109.633 149.786 110.07 149.219C110.513 148.646 110.734 147.812 110.734 146.719C110.734 145.625 110.513 144.797 110.07 144.234C109.633 143.672 108.984 143.391 108.125 143.391ZM118.414 142.281C119.456 142.281 120.234 142.534 120.75 143.039C121.266 143.544 121.523 144.336 121.523 145.414V151H120.227V145.461C120.227 144.758 120.065 144.237 119.742 143.898C119.424 143.56 118.93 143.391 118.258 143.391C117.357 143.391 116.698 143.633 116.281 144.117C115.87 144.602 115.664 145.398 115.664 146.508V151H114.367V142.438H115.422L115.633 143.609H115.695C115.961 143.188 116.331 142.862 116.805 142.633C117.284 142.398 117.82 142.281 118.414 142.281Z" fill="#333333"/>
</g>
<defs>
<filter id="filter0_d_324_3465" x="27.0078" y="138.258" width="96.5156" height="19.5859" filterUnits="userSpaceOnUse" color-interpolation-filters="sRGB">
<feFlood flood-opacity="0" result="BackgroundImageFix"/>
<feColorMatrix in="SourceAlpha" type="matrix" values="0 0 0 0 0 0 0 0 0 0 0 0 0 0 0 0 0 0 127 0" result="hardAlpha"/>
<feOffset dy="1"/>
<feGaussianBlur stdDeviation="1"/>
<feComposite in2="hardAlpha" operator="out"/>
<feColorMatrix type="matrix" values="0 0 0 0 1 0 0 0 0 1 0 0 0 0 1 0 0 0 0.8 0"/>
<feBlend mode="normal" in2="BackgroundImageFix" result="effect1_dropShadow_324_3465"/>
<feBlend mode="normal" in="SourceGraphic" in2="effect1_dropShadow_324_3465" result="shape"/>
</filter>
</defs>
</svg>
